<svg viewBox="0 0 300 100" fill="none" xmlns="http://www.w3.org/2000/svg">
  <defs>
    <linearGradient id="hatGradient" x1="50" y1="0" x2="50" y2="100" gradientUnits="userSpaceOnUse">
      <stop stop-color="#48BB78"/>
      <stop offset="1" stop-color="#2F855A"/>
    </linearGradient>
    <linearGradient id="clothesGradient" x1="50" y1="40" x2="50" y2="90" gradientUnits="userSpaceOnUse">
      <stop stop-color="#A0AEC0"/>
      <stop offset="1" stop-color="#718096"/>
    </linearGradient>
    <!-- óûæ(kªÕ»ÃÈH -->
    <linearGradient id="hatGradient2" x1="150" y1="0" x2="150" y2="100" gradientUnits="userSpaceOnUse">
      <stop stop-color="#48BB78"/>
      <stop offset="1" stop-color="#2F855A"/>
    </linearGradient>
    <linearGradient id="clothesGradient2" x1="150" y1="40" x2="150" y2="90" gradientUnits="userSpaceOnUse">
      <stop stop-color="#A0AEC0"/>
      <stop offset="1" stop-color="#718096"/>
    </linearGradient>
    <linearGradient id="hatGradient3" x1="250" y1="0" x2="250" y2="100" gradientUnits="userSpaceOnUse">
      <stop stop-color="#48BB78"/>
      <stop offset="1" stop-color="#2F855A"/>
    </linearGradient>
    <linearGradient id="clothesGradient3" x1="250" y1="40" x2="250" y2="90" gradientUnits="userSpaceOnUse">
      <stop stop-color="#A0AEC0"/>
      <stop offset="1" stop-color="#718096"/>
    </linearGradient>
  </defs>

  <!-- view-down (0100) -->
  <g id="view-down" transform="translate(0, 0)">
    <path d="M30 40 Q50 35 70 40 L75 80 Q50 85 25 80 Z" fill="#2D3748"/>
    <rect x="35" y="75" width="10" height="20" rx="3" fill="#4A5568"/>
    <rect x="55" y="75" width="10" height="20" rx="3" fill="#4A5568"/>
    <path d="M33 90 H47 V93 Q47 98 40 98 Q33 98 33 93 Z" fill="#744210"/>
    <path d="M53 90 H67 V93 Q67 98 60 98 Q53 98 53 93 Z" fill="#744210"/>
    <path d="M30 45 L70 45 L72 78 Q50 82 28 78 Z" fill="url(#clothesGradient)"/>
    <rect x="29" y="65" width="42" height="6" fill="#744210"/>
    <rect x="45" y="64" width="10" height="8" fill="#F6E05E" stroke="#B7791F" stroke-width="1"/>
    <circle cx="50" cy="35" r="20" fill="#F6E05E"/>
    <circle cx="50" cy="35" r="20" fill="#FBD38D"/>
    <ellipse cx="43" cy="38" rx="2.5" ry="4" fill="#1A202C"/>
    <ellipse cx="57" cy="38" rx="2.5" ry="4" fill="#1A202C"/>
    <circle cx="38" cy="45" r="2.5" fill="#F687B3" opacity="0.6"/>
    <circle cx="62" cy="45" r="2.5" fill="#F687B3" opacity="0.6"/>
    <path d="M20 30 Q50 5 80 30 L90 35 Q50 25 10 35 Z" fill="url(#hatGradient)"/>
    <path d="M30 30 Q50 0 70 30" fill="url(#hatGradient)"/>
    <path d="M85 32 Q88 20 82 10 L80 12 L85 32" fill="#E53E3E"/>
  </g>

  <!-- view-up (100200) -->
  <g id="view-up" transform="translate(100, 0)">
    <rect x="35" y="75" width="10" height="20" rx="3" fill="#4A5568"/>
    <rect x="55" y="75" width="10" height="20" rx="3" fill="#4A5568"/>
    <path d="M33 92 H47 V95 Q47 98 40 98 Q33 98 33 95 Z" fill="#5D350D"/>
    <path d="M53 92 H67 V95 Q67 98 60 98 Q53 98 53 95 Z" fill="#5D350D"/>
    <path d="M25 40 Q50 35 75 40 L80 85 Q50 90 20 85 Z" fill="#2F855A"/>
    <rect x="35" y="45" width="30" height="30" rx="5" fill="#975A16"/>
    <rect x="35" y="45" width="30" height="10" rx="2" fill="#744210"/>
    <rect x="45" y="55" width="10" height="15" rx="1" fill="#744210" opacity="0.5"/>
    <path d="M15 35 Q50 25 85 35 L80 25 Q50 0 20 25 Z" fill="url(#hatGradient2)"/>
  </g>

  <!-- view-right (200300) ;æMo scaleX(-1) gh: -->
  <g id="view-right" transform="translate(200, 0)">
    <path d="M40 75 L35 95 L45 95 L48 75 Z" fill="#2D3748"/>
    <path d="M32 95 H48 V96 Q48 98 40 98 Q32 98 32 96 Z" fill="#5D350D"/>
    <path d="M50 75 L55 95 L65 95 L60 75 Z" fill="#4A5568"/>
    <path d="M52 95 H68 V96 Q68 98 60 98 Q52 98 52 96 Z" fill="#744210"/>
    <path d="M35 40 Q55 40 60 45 L62 80 Q45 82 38 78 Z" fill="url(#clothesGradient3)"/>
    <path d="M45 45 Q55 60 65 55" stroke="#FBD38D" stroke-width="8" stroke-linecap="round"/>
    <circle cx="65" cy="55" r="5" fill="#FBD38D"/>
    <path d="M25 45 Q35 45 35 75 L25 70 Z" fill="#975A16"/>
    <circle cx="50" cy="35" r="18" fill="#FBD38D"/>
    <ellipse cx="60" cy="38" rx="2" ry="3.5" fill="#1A202C"/>
    <circle cx="63" cy="45" r="2.5" fill="#F687B3" opacity="0.6"/>
    <path d="M25 30 Q50 5 75 30 L85 35 Q50 25 15 35 Z" fill="url(#hatGradient3)"/>
    <path d="M80 32 Q83 20 77 10 L75 12 L80 32" fill="#E53E3E"/>
  </g>
</svg>
